# xmcd CD database file
#
# Track frame offsets:
#	150
#	19097
#	34215
#	54062
#	79040
#	101452
#	122470
#	153612
#	175892
#	197512
#	222452
#
# Disc length: 3350 seconds
#
# Revision: 3
# Processed by: cddbd v1.5.2PL0 Copyright (c) Steve Scherf et al.
# Submitted via: CDex 1.51
#
DISCID=860d140b
DTITLE=MOJOBONE - Crossroad Message
DYEAR=2002
DGENRE=Blues
TTITLE0=Different
TTITLE1=Walking Level
TTITLE2=Brother
TTITLE3=Dig Your Own Groove
TTITLE4=Heartfake
TTITLE5=Closer
TTITLE6=Crossroad Message
TTITLE7=Wasting Answers
TTITLE8=Upside Down
TTITLE9=Cash Mashine
TTITLE10=Power
EXTD=YEAR: 2002
EXTT0=
EXTT1=
EXTT2=
EXTT3=
EXTT4=
EXTT5=
EXTT6=
EXTT7=
EXTT8=
EXTT9=
EXTT10=
PLAYORDER=
